# xmcd CD Database Entry
#
# Track frame offsets:
# 150
# 31815
# 53709
# 77912
# 97764
# 117701
# 145434
# 172960
# 196091
# 218506
# 243935
# 260837
#
# Disc length: 3767 seconds
#
# Revision: 1
# Processed by: cddbd v1.4b41PL1 Copyright (c) Steve Scherf et al.
# Submitted via: tcd 2.0b
#
DISCID=a00eb50c
DTITLE=The New Testament Of Funk
DYEAR=1900
DGENRE=
TTITLE0=creation (ceasefire harlem mix) by elektrotwist
TTITLE1=the new avengers (raw deal remix) by the new testament
TTITLE2=cream of beats (metro remix) by akimbo
TTITLE3=zero trick by snowboy
TTITLE4=flight to havana by emperors new clothes
TTITLE5=leaders and believers (u.n.k.l.e. remix) by le hammond infern
TTITLE5=o
TTITLE6=variations on a groove by james taylor quartet
TTITLE7=gebrauchsmusik by bill chapman and ben
TTITLE8=b and b disco by high fidelity
TTITLE9=the professionals by chekov
TTITLE10=stylostumpf by the sookie allstars
TTITLE11=in and out by erobique
EXTD=
EXTT0=
EXTT1=
EXTT2=
EXTT3=
EXTT4=
EXTT5=
EXTT6=
EXTT7=
EXTT8=
EXTT9=
EXTT10=
EXTT11=
PLAYORDER=
